<?xml version="1.0" encoding="UTF-8" standalone="no"?>
<!-- Created with Inkscape (http://www.inkscape.org/) -->

<svg
   xmlns:dc="http://purl.org/dc/elements/1.1/"
   xmlns:cc="http://creativecommons.org/ns#"
   xmlns:rdf="http://www.w3.org/1999/02/22-rdf-syntax-ns#"
   xmlns:svg="http://www.w3.org/2000/svg"
   xmlns="http://www.w3.org/2000/svg"
   xmlns:sodipodi="http://sodipodi.sourceforge.net/DTD/sodipodi-0.dtd"
   xmlns:inkscape="http://www.inkscape.org/namespaces/inkscape"
   id="svg3390"
   version="1.1"
   inkscape:version="0.91 r13725"
   width="388"
   height="219"
   viewBox="0 0 388 219"
   sodipodi:docname="fast-delivery.svg">
  <metadata
     id="metadata3396">
    <rdf:RDF>
      <cc:Work
         rdf:about="">
        <dc:format>image/svg+xml</dc:format>
        <dc:type
           rdf:resource="http://purl.org/dc/dcmitype/StillImage" />
        <dc:title></dc:title>
      </cc:Work>
    </rdf:RDF>
  </metadata>
  <defs
     id="defs3394" />
  <sodipodi:namedview
     pagecolor="#ffffff"
     bordercolor="#666666"
     borderopacity="1"
     objecttolerance="10"
     gridtolerance="10"
     guidetolerance="10"
     inkscape:pageopacity="0"
     inkscape:pageshadow="2"
     inkscape:window-width="1863"
     inkscape:window-height="1059"
     id="namedview3392"
     showgrid="false"
     inkscape:zoom="1.7615979"
     inkscape:cx="153.3303"
     inkscape:cy="100.28633"
     inkscape:window-x="57"
     inkscape:window-y="21"
     inkscape:window-maximized="1"
     inkscape:current-layer="svg3390" />
  <path
     style="fill:#e40000;fill-opacity:1"
     d="m 28.161668,202.95742 c 0,-2.87654 122.354842,-38.38846 185.500002,-53.83899 26.95723,-6.59597 83.09468,-18.96993 86.06164,-18.96993 0.7911,0 1.43638,0.5625 1.43396,1.25 -0.003,0.83063 -10.15162,3.39757 -30.25,7.65123 -58.05497,12.28684 -116.7024,27.7086 -196.55053,51.68436 -49.634464,14.9036 -46.195072,13.99353 -46.195072,12.22333 z m 69.227662,-4.99189 c 1.26509,-3.79527 182.74686,-54.17584 185.44258,-51.48012 1.31522,1.31521 -1.1873,2.40551 -10.67024,4.64878 -38.20641,9.03808 -106.09265,27.74326 -152.22316,41.94313 -20.40533,6.28116 -23.21665,6.8906 -22.54918,4.88821 z m 104.98609,-20.95827 c 0.32897,-0.98691 64.14889,-18.79056 67.53625,-18.84038 0.6875,-0.0101 1.24956,0.54412 1.24902,1.23162 -6.3e-4,0.79841 -12.01285,4.42697 -33.25,10.04389 -18.28696,4.83664 -33.84902,8.77414 -34.58235,8.75 -0.73334,-0.0241 -1.16215,-0.55745 -0.95292,-1.18513 z m -134.713752,-8.76586 -5,-0.5929 0.10024,-9 c 0.05594,-5.02262 1.26091,-15.23813 2.726599,-23.11562 l 2.626359,-14.11563 -3.132598,-5.78372 c -3.770561,-6.9616 -3.492855,-7.33672 7.495302,-10.12465 13.11533,-3.32764 24.60608,-1.8691 30.84784,3.91556 5.00896,4.64215 6.32832,8.43912 6.33246,18.22406 0.003,7.83376 -0.35842,9.73761 -2.79147,14.69219 -3.27418,6.66744 -10.17738,14.66089 -16.29799,18.87197 -6.11611,4.208 -13.86657,7.96385 -16.05197,7.77874 -1.02012,-0.0864 -4.10477,-0.42391 -6.854772,-0.75 z M 87.34815,147.217 c 5.99837,-5.28183 10.81933,-14.64773 10.79821,-20.97822 -0.008,-2.52466 -0.35508,-5.12463 -0.77035,-5.77772 -1.32941,-2.09074 -6.58963,-3.47786 -10.80317,-2.8488 l -4.08883,0.61045 -1.19642,12.71289 c -0.65803,6.9921 -1.47022,14.90084 -1.80487,17.57499 -0.56889,4.54595 -0.48532,4.79612 1.28525,3.84757 1.04153,-0.55799 4.00261,-2.87151 6.58018,-5.14116 z m 28.81352,8.4315 c -0.68469,-0.825 -2.15717,-1.5 -3.27219,-1.5 -1.93311,0 -1.99609,-0.40652 -1.35563,-8.75 0.36942,-4.8125 1.93397,-15.275 3.4768,-23.25 2.21314,-11.43997 2.60157,-15.30458 1.84057,-18.3125 -0.56043,-2.21517 -0.59272,-4.15026 -0.077,-4.61868 1.77377,-1.611238 22.04275,-7.25284 27.93135,-7.774318 l 6.04385,-0.535227 1.83377,4.066586 c 1.00858,2.236623 1.60263,4.653289 1.32012,5.370359 -0.28251,0.71708 -5.40244,2.60235 -11.37762,4.1895 -5.97519,1.58714 -11.42647,3.32974 -12.11397,3.87244 -1.06285,0.839 -1.90174,10.74184 -0.90996,10.74184 0.18702,0 3.87335,-0.90367 8.19184,-2.00815 4.3185,-1.10449 8.19487,-1.6651 8.61417,-1.2458 0.4193,0.4193 0.89547,2.78547 1.05816,5.25816 l 0.29574,4.49579 -10.16537,3.46226 c -10.08798,3.43589 -10.16875,3.48919 -10.60808,7 -0.24349,1.94576 -0.39209,3.61472 -0.33022,3.70882 0.0619,0.0941 3.93251,-0.93536 8.60141,-2.28767 4.66891,-1.3523 9.37526,-2.32929 10.45856,-2.17107 3.00008,0.43815 4.39641,9.78766 1.46177,9.78766 -0.47737,0 -7.15398,2.7 -14.8369,6 -7.68291,3.3 -14.16409,6 -14.40261,6 -0.23852,0 -0.99387,-0.675 -1.67856,-1.5 z m 43.36163,-9 c -0.32811,-0.85503 -1.81954,-1.5 -3.46862,-1.5 -2.82658,0 -2.89301,-0.12163 -2.89301,-5.29709 0,-7.88669 7.65201,-51.86114 9.20027,-52.872 2.26428,-1.478338 5.71538,-2.068898 8.29973,-1.420266 2.11318,0.530376 2.49683,1.204735 2.47948,4.358408 -0.0229,4.156355 -2.57567,31.355338 -3.55731,37.901358 l -0.63001,4.20126 7.19971,-2.43583 c 9.37295,-3.1711 11.78719,-3.14715 13.03288,0.12926 1.46296,3.84787 1.18091,6.42828 -0.77475,7.08809 -0.9625,0.32473 -7.28655,3.01061 -14.05344,5.96862 -6.7669,2.958 -12.74352,5.37819 -13.28139,5.37819 -0.53787,0 -1.23696,-0.675 -1.55354,-1.5 z m 140.63837,-3.76733 c 0,-1.55158 32.79682,-8.87044 33.63952,-7.50691 0.30842,0.49901 0.28896,1.17909 -0.0432,1.51128 -0.60892,0.60893 -30.02268,7.19032 -32.34629,7.23755 -0.6875,0.014 -1.25,-0.54489 -1.25,-1.24192 z m -105.92956,-6.14779 c -1.82677,-2.20113 -0.79011,-14.30553 3.04761,-35.58488 3.92402,-21.757865 3.52271,-20.554185 7.23232,-21.692695 4.27619,-1.312401 7.64963,0.190556 7.64963,3.408119 0,12.769218 -4.23458,51.932506 -5.77961,53.452526 -0.39622,0.38979 -2.98991,1.0071 -5.76377,1.3718 -3.99729,0.52556 -5.32191,0.3275 -6.38618,-0.95487 z m 28.56937,-8.33488 c -1.96974,-3.83748 -3.39106,-11.46334 -5.1721,-27.75 -0.84204,-7.7 -1.79572,-15.665379 -2.11929,-17.700843 -0.52826,-3.32306 -0.33666,-3.764005 1.87696,-4.319587 1.35589,-0.340309 4.22237,-0.474929 6.36994,-0.299157 3.5507,0.290615 4.01934,0.670772 5.16943,4.193402 0.69561,2.130598 2.20092,8.880598 3.34513,15 1.1442,6.119405 2.27896,11.768215 2.52168,12.552925 0.24272,0.7847 3.28537,-5.5153 6.76145,-14.000004 10.63383,-25.955977 11.07247,-26.923907 12.202,-26.925343 0.60226,-7.66e-4 1.90635,0.89512 2.89798,1.990857 1.74046,1.923195 1.72427,2.261148 -0.46726,9.75 -3.16709,10.822516 -13.77159,39.78907 -16.66015,45.50775 l -2.39927,4.75 -6.45748,0 c -6.03565,0 -6.54968,-0.17964 -7.86902,-2.75 z m 37.72182,-4.75 c -0.31659,-0.825 -1.49349,-1.5 -2.61535,-1.5 -1.92179,0 -2.00431,-0.41927 -1.4269,-7.25 0.33707,-3.9875 1.7631,-13.47788 3.16897,-21.089733 1.99913,-10.824063 2.33927,-14.62505 1.56098,-17.443771 -0.54732,-1.982221 -0.82443,-3.774729 -0.61581,-3.983351 0.95944,-0.95944 21.52971,-5.199131 25.30306,-5.215154 3.93016,-0.01669 4.34604,0.24399 5.75,3.604133 0.83238,1.992168 1.51342,4.157207 1.51342,4.811198 0,0.694633 -4.32826,2.149785 -10.40898,3.499476 l -10.40898,2.310402 -0.4218,4.6284 c -0.23199,2.54562 -0.28552,4.902583 -0.11896,5.237696 0.16656,0.335112 3.27529,-0.05751 6.90829,-0.872484 3.75294,-0.841882 6.97523,-1.105003 7.46172,-0.609296 0.47094,0.479866 0.99855,2.672484 1.17248,4.872484 l 0.31623,4 -8.65626,2.40632 c -8.09447,2.25014 -8.69525,2.60124 -9.25695,5.40972 -0.33037,1.65187 -0.4622,3.14188 -0.29295,3.31114 0.16926,0.16925 3.97453,-0.45048 8.45616,-1.37718 4.48163,-0.9267 8.34487,-1.47456 8.58497,-1.21746 0.2401,0.2571 0.74462,2.33328 1.12116,4.61372 l 0.68461,4.14626 -5.32037,1.74083 c -2.9262,0.95746 -8.59458,3.02914 -12.5964,4.60374 -8.38373,3.29876 -9.08244,3.39531 -9.86234,1.36291 z m 35.89002,-5.18492 c -1.37655,-0.27781 -2.49697,-1.44432 -2.88953,-3.0084 -0.91284,-3.63706 0.18512,-19.102448 2.17894,-30.691663 1.59186,-9.252799 1.59354,-10.109551 0.0262,-13.396377 -0.92096,-1.931266 -1.31284,-3.83205 -0.87084,-4.223964 2.12408,-1.883421 16.76869,-6.232795 21.21188,-6.299824 5.94503,-0.08968 8.2359,1.581961 11.12803,8.120098 3.84303,8.687796 1.60264,16.805931 -6.88599,24.951709 l -4.93261,4.733341 4.14114,3.12714 c 2.27762,1.71993 5.15363,3.74068 6.39113,4.49055 1.2375,0.74987 2.25,1.64396 2.25,1.98686 0,0.34289 -1.77212,1.85153 -3.93804,3.35251 -4.67999,3.24324 -7.39935,2.95684 -14.09385,-1.48433 -2.45746,-1.63029 -4.78315,-2.96609 -5.16821,-2.96845 -0.38505,-0.002 -0.83505,2.58322 -1,5.74572 -0.27874,5.34434 -0.47628,5.75948 -2.7999,5.88441 -1.375,0.0739 -3.51176,-0.0698 -4.74835,-0.31933 z m 18.77611,-34.182837 c 8.73341,-8.73341 9.13726,-13.919025 0.97224,-12.484089 -5.95264,1.046129 -6.71252,1.879974 -7.89355,8.661973 -2.06512,11.858794 -1.45326,12.19668 6.92131,3.822116 z m 24.35296,26.417527 c -0.36062,-0.93978 -0.35903,-5.63838 0.004,-10.44133 0.64488,-8.542703 0.58107,-8.901802 -2.93404,-16.509794 -1.9763,-4.277433 -4.094,-10.164423 -4.70601,-13.082202 -0.95598,-4.557632 -0.87221,-5.672163 0.59457,-7.910748 1.35404,-2.06722 2.50943,-2.605696 5.5905,-2.605696 3.88279,0 3.88426,0.0016 6.8372,7.25 1.62446,3.9875 3.25599,8.112189 3.62562,9.165975 0.5279,1.505009 2.32518,-0.800805 8.37914,-10.75 4.23891,-6.966286 8.05902,-12.665975 8.48914,-12.665975 0.43012,0 1.30005,1.136918 1.93318,2.526485 1.3493,2.961399 0.92417,4.02272 -8.60172,21.473515 -5.98553,10.965112 -6.33466,11.988376 -7.50603,22 -0.67568,5.775 -1.59202,10.87301 -2.03631,11.32892 -0.44428,0.4559 -2.65409,1.07655 -4.91067,1.37922 -3.27494,0.43926 -4.23519,0.20551 -4.75857,-1.15837 z M 16.161668,97.187044 c 0,-1.297628 0.749795,-1.480748 55.000002,-13.432502 66.91367,-14.741616 65.92142,-14.542202 66.6327,-13.391333 0.85583,1.384763 -1.14327,2.453671 -6.0206,3.219186 -2.26165,0.354975 -28.43038,6.027566 -58.15272,12.605757 C 43.898705,92.766344 18.811205,98.1485 17.871046,98.1485 c -0.940158,0 -1.709378,-0.432655 -1.709378,-0.961456 z M 152.41167,81.430221 c -0.71025,-0.254773 -1.25,-2.13573 -1.25,-4.356064 0,-4.717156 6.07666,-16.829899 17.44704,-34.777606 l 7.78297,-12.285106 -2.13718,-1.991086 c -2.45514,-2.287311 -1.95619,-3.873904 1.21619,-3.867294 1.20504,0.0025 7.94538,-1.170084 14.97853,-2.605767 10.81463,-2.207599 13.24461,-2.421012 15.75,-1.383245 3.49113,1.446073 3.94812,3.9915 0.71245,3.968348 -1.2375,-0.0089 -6.42303,0.982257 -11.52341,2.20247 l -9.27341,2.21857 -7.08109,10.859699 c -3.8946,5.972834 -6.89176,11.049026 -6.66036,11.280427 0.23141,0.231401 1.96296,-0.02157 3.8479,-0.562169 4.67255,-1.340069 10.28702,-1.236247 11.74037,0.217102 1.76027,1.760269 1.46764,2.8 -0.78804,2.8 -1.09343,0 -6.16916,1.33933 -11.27941,2.976289 l -9.29136,2.976289 -5.78354,11.003598 c -6.09542,11.596962 -6.42255,12.037621 -8.40765,11.325545 z M 39.704373,74.217598 c -0.316431,-0.511996 -0.161898,-1.186416 0.343407,-1.498712 0.791751,-0.489328 83.9401,-17.570386 85.53033,-17.570386 0.32096,0 0.58356,0.675 0.58356,1.5 0,0.825 -0.2981,1.5 -0.66244,1.5 -0.36435,0 -19.5209,3.825 -42.57012,8.5 -23.049225,4.675 -42.074568,8.5 -42.278543,8.5 -0.203976,0 -0.629763,-0.418906 -0.946194,-0.930902 z M 190.81666,70.319759 c -4.05595,-4.481776 0.1077,-15.143166 9.58922,-24.554044 9.33684,-9.26727 18.17487,-12.439701 20.83071,-7.477228 1.12423,2.100649 1.18214,2.081773 3.15038,-1.026841 1.59297,-2.515931 2.28972,-2.930608 3.3899,-2.017542 2.41756,2.006397 1.50571,5.134339 -4.63181,15.888653 -6.64135,11.637146 -7.43262,15.015743 -3.51672,15.015743 3.76249,0 9.53333,-6.260475 9.53333,-10.342204 0,-1.801545 0.66645,-4.149045 1.481,-5.216666 1.26404,-1.656769 1.6223,-1.725634 2.44562,-0.47009 0.53055,0.809071 1.13926,1.259071 1.3527,1 2.84787,-3.456799 9.54616,-14.164591 10.28416,-16.440105 0.94865,-2.925041 5.71742,-6.583364 6.96084,-5.339947 0.35075,0.350746 0.0949,1.65195 -0.5685,2.891566 -0.85604,1.599518 -1.00632,5.238055 -0.51767,12.533005 0.45773,6.833167 0.32029,10.967287 -0.40998,12.3318 -0.60419,1.128952 -0.72098,2.052641 -0.25952,2.052641 1.42822,0 7.23135,-6.508804 7.23135,-8.1107 0,-0.833517 2.025,-5.484037 4.5,-10.334489 2.475,-4.850453 4.5,-9.209561 4.5,-9.686908 0,-0.477347 -0.87344,-0.867903 -1.94098,-0.867903 -1.06754,0 -2.18996,-0.402847 -2.49426,-0.895215 -0.66459,-1.075331 1.72955,-2.104785 4.89497,-2.104785 1.7125,0 3.14343,-1.398016 5.6295,-5.5 1.83334,-3.025 3.74679,-5.5 4.25211,-5.5 0.50532,0 0.69434,1.99105 0.42005,4.424556 -0.45241,4.013821 -0.27882,4.479744 1.86995,5.019052 3.34424,0.839352 2.94636,2.556392 -0.59238,2.556392 -1.64739,0 -3.75471,0.859777 -4.75,1.937979 -2.58229,2.797395 -10.96991,19.007424 -11.73971,22.688309 -0.78045,3.731784 1.36136,6.471355 4.43162,5.668465 2.27362,-0.594567 7.61809,-6.320465 9.25717,-9.917842 1.37562,-3.019161 3.12755,-3.12031 2.19815,-0.126911 -2.65923,8.564849 -13.61098,14.616758 -18.47887,10.211375 -1.54506,-1.398259 -2.17112,-1.245859 -6.86262,1.670537 -6.27678,3.901863 -14.10441,4.948666 -18.80972,2.515457 -2.86807,-1.483137 -3.14912,-1.454975 -4.91121,0.492113 -4.59267,5.074848 -14.29837,6.738438 -16.40024,2.811058 -1.07174,-2.002573 -1.17804,-1.978163 -4.64627,1.066988 -6.01684,5.282855 -13.46962,6.692624 -16.67227,3.153731 z m 11.72698,-2.103222 c 5.74685,-3.560805 16.61803,-20.314716 16.61803,-25.610566 0,-5.093591 -3.71621,-3.816052 -11.22201,3.857839 -8.05859,8.239066 -13.30521,19.139575 -10.71464,22.261019 1.50256,1.810479 1.58975,1.802146 5.31862,-0.508292 z m 40.45172,-7.367651 c 1.62197,-1.954351 2.30298,-8.598378 1.43649,-14.014647 l -0.77018,-4.814261 -4.5,6.779713 c -2.475,3.728843 -4.62463,7.056652 -4.77696,7.395132 -0.15232,0.338481 0.66784,1.816527 1.82258,3.284548 2.26719,2.882256 5.06427,3.446576 6.78807,1.369515 z M 132.40972,54.904358 c 0.52218,-1.566551 17.89993,-4.895563 19.18528,-3.675278 1.44812,1.374815 0.51474,1.771674 -7.99804,3.400629 -9.64111,1.844863 -11.72772,1.89609 -11.18724,0.274649 z M 94.16167,51.6485 c 0,-0.825 0.2205,-1.5 0.49,-1.5 0.26951,0 14.55701,-2.473786 31.75,-5.497301 32.63244,-5.738656 35.76,-6.134126 35.76,-4.521751 0,0.539521 -1.0125,1.214468 -2.25,1.499882 -2.53761,0.585267 -64.4714,11.51917 -65.24896,11.51917 -0.27557,0 -0.50104,-0.675 -0.50104,-1.5 z"
     id="path4200"
     inkscape:connector-curvature="0" />
</svg>
